<svg xmlns="http://www.w3.org/2000/svg" width="19.959" height="24" viewBox="0 0 19.959 24">
    <defs>
        <style>
            .prefix__cls-1{fill:#fff}
        </style>
    </defs>
    <g id="prefix__bell-53" transform="translate(-2.05)">
        <path id="prefix__Path_90" d="M21.8 18.4A13.053 13.053 0 0 1 20 12V8A8 8 0 0 0 4 8v4a13.053 13.053 0 0 1-1.8 6.4.908.908 0 0 0 0 1 .76.76 0 0 0 .8.6h18a1.05 1.05 0 0 0 .9-.5 1.1 1.1 0 0 0-.1-1.1z" class="prefix__cls-1" data-name="Path 90"/>
        <path id="prefix__Path_91" d="M8.6 22a3.994 3.994 0 0 0 3.4 2 3.994 3.994 0 0 0 3.4-2z" class="prefix__cls-1" data-name="Path 91"/>
    </g>
</svg>
